<svg xmlns="http://www.w3.org/2000/svg" xmlns:xlink="http://www.w3.org/1999/xlink" width="300" zoomAndPan="magnify" viewBox="0 0 224.87999 74.999997" height="100" preserveAspectRatio="xMidYMid meet" version="1.0"><defs><g/><clipPath id="e4c17ccf19"><path d="M 51 0.0195312 L 67 0.0195312 L 67 11 L 51 11 Z M 51 0.0195312 " clip-rule="nonzero"/></clipPath><clipPath id="ea30942ee2"><path d="M 37.617188 62 L 53.296875 62 L 53.296875 73.628906 L 37.617188 73.628906 Z M 37.617188 62 " clip-rule="nonzero"/></clipPath></defs><path fill="#303437" d="M 77.5 8.847656 L 59.910156 17.332031 C 55.636719 19.394531 53.367188 23.878906 53.859375 28.339844 L 80.664062 15.410156 C 82.453125 14.546875 84.613281 15.300781 85.476562 17.089844 L 87.871094 22.050781 C 88.734375 23.839844 87.980469 26 86.1875 26.863281 L 59.386719 39.792969 C 62.570312 42.957031 67.492188 43.972656 71.765625 41.910156 L 89.355469 33.425781 C 94.773438 30.8125 97.046875 24.304688 94.433594 18.886719 L 92.039062 13.925781 C 89.425781 8.507812 82.914062 6.234375 77.5 8.847656 Z M 19.140625 55.207031 L 16.746094 50.246094 C 15.882812 48.457031 16.636719 46.296875 18.425781 45.433594 L 45.230469 32.503906 C 42.046875 29.339844 37.125 28.324219 32.851562 30.386719 L 15.261719 38.871094 C 9.84375 41.484375 7.570312 47.992188 10.183594 53.410156 L 12.578125 58.371094 C 15.191406 63.789062 21.699219 66.0625 27.117188 63.449219 L 44.707031 54.964844 C 48.980469 52.902344 51.25 48.417969 50.757812 43.957031 L 23.953125 56.886719 C 22.160156 57.75 20 56.996094 19.140625 55.207031 " fill-opacity="1" fill-rule="nonzero"/><path fill="#303437" d="M 71.054688 28.191406 C 71.402344 28.917969 71.453125 29.753906 71.1875 30.515625 C 70.921875 31.277344 70.363281 31.902344 69.636719 32.25 L 38.472656 47.285156 C 37.746094 47.636719 36.910156 47.683594 36.148438 47.417969 C 35.386719 47.152344 34.761719 46.59375 34.410156 45.867188 L 33.5625 44.105469 C 32.832031 42.59375 33.46875 40.773438 34.980469 40.046875 L 66.144531 25.011719 C 67.65625 24.28125 69.476562 24.917969 70.203125 26.429688 L 71.054688 28.191406 " fill-opacity="1" fill-rule="nonzero"/><path fill="#303437" d="M 22.300781 31.585938 C 22.085938 31.691406 21.835938 31.730469 21.582031 31.683594 C 20.949219 31.566406 20.527344 30.957031 20.644531 30.320312 C 22.511719 20.230469 29.113281 11.554688 38.304688 7.121094 C 44.429688 4.167969 51.199219 3.238281 57.882812 4.429688 C 58.515625 4.542969 58.9375 5.148438 58.824219 5.785156 C 58.710938 6.417969 58.101562 6.839844 57.46875 6.730469 C 51.273438 5.621094 45 6.488281 39.320312 9.226562 C 30.796875 13.339844 24.671875 21.382812 22.941406 30.746094 C 22.871094 31.125 22.625 31.429688 22.300781 31.585938 " fill-opacity="1" fill-rule="nonzero"/><g clip-path="url(#e4c17ccf19)"><path fill="#303437" d="M 55.042969 -1.332031 L 55.671875 5.21875 L 51.394531 10.21875 L 66.90625 8.769531 L 55.042969 -1.332031 " fill-opacity="1" fill-rule="nonzero"/></g><path fill="#303437" d="M 66.308594 65.175781 C 60.1875 68.128906 53.417969 69.058594 46.734375 67.871094 C 46.101562 67.753906 45.675781 67.148438 45.789062 66.511719 C 45.902344 65.878906 46.507812 65.457031 47.144531 65.570312 C 53.34375 66.671875 59.617188 65.808594 65.292969 63.070312 C 73.820312 58.957031 79.941406 50.914062 81.675781 41.550781 C 81.792969 40.914062 82.402344 40.5 83.035156 40.617188 C 83.667969 40.734375 84.089844 41.34375 83.972656 41.976562 C 82.105469 52.070312 75.5 60.742188 66.308594 65.175781 " fill-opacity="1" fill-rule="nonzero"/><g clip-path="url(#ea30942ee2)"><path fill="#303437" d="M 49.570312 73.628906 L 48.945312 67.078125 L 53.222656 62.078125 L 37.707031 63.527344 L 49.570312 73.628906 " fill-opacity="1" fill-rule="nonzero"/></g><g fill="#303437" fill-opacity="1"><g transform="translate(97.06505, 42.844025)"><g><path d="M 4.46875 0 L 4.46875 -32.46875 L 8.234375 -32.46875 L 8.234375 -3.421875 L 22.5625 -3.421875 L 22.5625 0 Z M 4.46875 0 "/></g></g></g><g fill="#303437" fill-opacity="1"><g transform="translate(120.664855, 42.844025)"><g><path d="M 4.46875 0 L 4.46875 -32.46875 L 8.234375 -32.46875 L 8.234375 0 Z M 4.46875 0 "/></g></g></g><g fill="#303437" fill-opacity="1"><g transform="translate(133.341702, 42.844025)"><g><path d="M 29.828125 0 L 25.515625 0 L 7.765625 -27.25 L 7.59375 -27.25 C 7.832031 -24.050781 7.953125 -21.117188 7.953125 -18.453125 L 7.953125 0 L 4.46875 0 L 4.46875 -32.46875 L 8.734375 -32.46875 L 26.421875 -5.328125 L 26.609375 -5.328125 C 26.578125 -5.734375 26.507812 -7.019531 26.40625 -9.1875 C 26.300781 -11.351562 26.265625 -12.90625 26.296875 -13.84375 L 26.296875 -32.46875 L 29.828125 -32.46875 Z M 29.828125 0 "/></g></g></g><g fill="#303437" fill-opacity="1"><g transform="translate(167.620252, 42.844025)"><g><path d="M 27.921875 0 L 23.46875 0 L 11.640625 -15.75 L 8.234375 -12.71875 L 8.234375 0 L 4.46875 0 L 4.46875 -32.46875 L 8.234375 -32.46875 L 8.234375 -16.375 L 22.96875 -32.46875 L 27.421875 -32.46875 L 14.375 -18.359375 Z M 27.921875 0 "/></g></g></g><g fill="#303437" fill-opacity="1"><g transform="translate(195.527077, 42.844025)"><g><path d="M 4.46875 0 L 4.46875 -32.46875 L 8.234375 -32.46875 L 8.234375 0 Z M 4.46875 0 "/></g></g></g><g fill="#60555d" fill-opacity="1"><g transform="translate(100.241255, 63.114307)"><g><path d="M 5.34375 0 L 3 -7.640625 L 2.9375 -7.640625 C 3.03125 -6.085938 3.078125 -5.050781 3.078125 -4.53125 L 3.078125 0 L 1.21875 0 L 1.21875 -9.734375 L 4.03125 -9.734375 L 6.34375 -2.296875 L 6.375 -2.296875 L 8.828125 -9.734375 L 11.640625 -9.734375 L 11.640625 0 L 9.71875 0 L 9.71875 -4.609375 C 9.71875 -4.828125 9.71875 -5.078125 9.71875 -5.359375 C 9.726562 -5.640625 9.757812 -6.394531 9.8125 -7.625 L 9.75 -7.625 L 7.234375 0 Z M 5.34375 0 "/></g></g></g><g fill="#60555d" fill-opacity="1"><g transform="translate(113.090663, 63.114307)"><g><path d="M 1.21875 0 L 1.21875 -9.734375 L 3.296875 -9.734375 L 3.296875 0 Z M 1.21875 0 "/></g></g></g><g fill="#60555d" fill-opacity="1"><g transform="translate(117.602263, 63.114307)"><g><path d="M 9.859375 0 L 7.234375 0 L 3 -7.359375 L 2.9375 -7.359375 C 3.03125 -6.066406 3.078125 -5.140625 3.078125 -4.578125 L 3.078125 0 L 1.21875 0 L 1.21875 -9.734375 L 3.828125 -9.734375 L 8.0625 -2.4375 L 8.109375 -2.4375 C 8.035156 -3.707031 8 -4.601562 8 -5.125 L 8 -9.734375 L 9.859375 -9.734375 Z M 9.859375 0 "/></g></g></g><g fill="#60555d" fill-opacity="1"><g transform="translate(128.681633, 63.114307)"><g><path d="M 9.203125 0 L 7.140625 0 L 7.140625 -4.203125 L 3.296875 -4.203125 L 3.296875 0 L 1.21875 0 L 1.21875 -9.734375 L 3.296875 -9.734375 L 3.296875 -5.921875 L 7.140625 -5.921875 L 7.140625 -9.734375 L 9.203125 -9.734375 Z M 9.203125 0 "/></g></g></g><g fill="#60555d" fill-opacity="1"><g transform="translate(139.108885, 63.114307)"><g><path d="M 9.859375 0 L 7.234375 0 L 3 -7.359375 L 2.9375 -7.359375 C 3.03125 -6.066406 3.078125 -5.140625 3.078125 -4.578125 L 3.078125 0 L 1.21875 0 L 1.21875 -9.734375 L 3.828125 -9.734375 L 8.0625 -2.4375 L 8.109375 -2.4375 C 8.035156 -3.707031 8 -4.601562 8 -5.125 L 8 -9.734375 L 9.859375 -9.734375 Z M 9.859375 0 "/></g></g></g><g fill="#60555d" fill-opacity="1"><g transform="translate(150.188255, 63.114307)"><g><path d="M 9.203125 0 L 7.140625 0 L 7.140625 -4.203125 L 3.296875 -4.203125 L 3.296875 0 L 1.21875 0 L 1.21875 -9.734375 L 3.296875 -9.734375 L 3.296875 -5.921875 L 7.140625 -5.921875 L 7.140625 -9.734375 L 9.203125 -9.734375 Z M 9.203125 0 "/></g></g></g><g fill="#60555d" fill-opacity="1"><g transform="translate(160.615507, 63.114307)"><g><path d="M 7.1875 0 L 6.484375 -2.3125 L 2.9375 -2.3125 L 2.21875 0 L 0 0 L 3.4375 -9.78125 L 5.96875 -9.78125 L 9.40625 0 Z M 5.984375 -4.046875 C 5.335938 -6.148438 4.972656 -7.335938 4.890625 -7.609375 C 4.804688 -7.890625 4.742188 -8.109375 4.703125 -8.265625 C 4.554688 -7.691406 4.140625 -6.285156 3.453125 -4.046875 Z M 5.984375 -4.046875 "/></g></g></g><g fill="#60555d" fill-opacity="1"><g transform="translate(170.018, 63.114307)"><g><path d="M 4.984375 0 L 2.921875 0 L 2.921875 -8.015625 L 0.265625 -8.015625 L 0.265625 -9.734375 L 7.625 -9.734375 L 7.625 -8.015625 L 4.984375 -8.015625 Z M 4.984375 0 "/></g></g></g><g fill="#60555d" fill-opacity="1"><g transform="translate(177.909972, 63.114307)"><g><path d="M 3.296875 -5.15625 L 3.96875 -5.15625 C 4.601562 -5.15625 5.078125 -5.28125 5.390625 -5.53125 C 5.710938 -5.78125 5.875 -6.144531 5.875 -6.625 C 5.875 -7.113281 5.738281 -7.472656 5.46875 -7.703125 C 5.207031 -7.929688 4.796875 -8.046875 4.234375 -8.046875 L 3.296875 -8.046875 Z M 7.953125 -6.703125 C 7.953125 -5.648438 7.625 -4.847656 6.96875 -4.296875 C 6.3125 -3.742188 5.378906 -3.46875 4.171875 -3.46875 L 3.296875 -3.46875 L 3.296875 0 L 1.21875 0 L 1.21875 -9.734375 L 4.34375 -9.734375 C 5.519531 -9.734375 6.414062 -9.476562 7.03125 -8.96875 C 7.644531 -8.46875 7.953125 -7.710938 7.953125 -6.703125 Z M 7.953125 -6.703125 "/></g></g></g><g fill="#60555d" fill-opacity="1"><g transform="translate(186.467371, 63.114307)"><g><path d="M 9.203125 0 L 7.140625 0 L 7.140625 -4.203125 L 3.296875 -4.203125 L 3.296875 0 L 1.21875 0 L 1.21875 -9.734375 L 3.296875 -9.734375 L 3.296875 -5.921875 L 7.140625 -5.921875 L 7.140625 -9.734375 L 9.203125 -9.734375 Z M 9.203125 0 "/></g></g></g><g fill="#60555d" fill-opacity="1"><g transform="translate(196.894623, 63.114307)"><g><path d="M 7.1875 0 L 6.484375 -2.3125 L 2.9375 -2.3125 L 2.21875 0 L 0 0 L 3.4375 -9.78125 L 5.96875 -9.78125 L 9.40625 0 Z M 5.984375 -4.046875 C 5.335938 -6.148438 4.972656 -7.335938 4.890625 -7.609375 C 4.804688 -7.890625 4.742188 -8.109375 4.703125 -8.265625 C 4.554688 -7.691406 4.140625 -6.285156 3.453125 -4.046875 Z M 5.984375 -4.046875 "/></g></g></g><g fill="#60555d" fill-opacity="1"><g transform="translate(206.297115, 63.114307)"><g><path d="M 9.859375 0 L 7.234375 0 L 3 -7.359375 L 2.9375 -7.359375 C 3.03125 -6.066406 3.078125 -5.140625 3.078125 -4.578125 L 3.078125 0 L 1.21875 0 L 1.21875 -9.734375 L 3.828125 -9.734375 L 8.0625 -2.4375 L 8.109375 -2.4375 C 8.035156 -3.707031 8 -4.601562 8 -5.125 L 8 -9.734375 L 9.859375 -9.734375 Z M 9.859375 0 "/></g></g></g></svg>