<svg xmlns="http://www.w3.org/2000/svg" xmlns:xlink="http://www.w3.org/1999/xlink" width="300" zoomAndPan="magnify" viewBox="0 0 224.87999 74.999997" height="100" preserveAspectRatio="xMidYMid meet" version="1.0"><defs><g/><clipPath id="02bc24a60b"><path d="M 25 15.519531 L 35 15.519531 L 35 23 L 25 23 Z M 25 15.519531 " clip-rule="nonzero"/></clipPath><clipPath id="ca27e7e2aa"><path d="M 17.628906 52.65625 L 26.820312 52.65625 L 26.820312 59.476562 L 17.628906 59.476562 Z M 17.628906 52.65625 " clip-rule="nonzero"/></clipPath></defs><path fill="#ffffff" d="M 41.011719 21.488281 L 30.699219 26.464844 C 28.195312 27.675781 26.863281 30.304688 27.152344 32.921875 L 42.871094 25.335938 C 43.917969 24.832031 45.1875 25.273438 45.691406 26.324219 L 47.09375 29.230469 C 47.601562 30.28125 47.160156 31.546875 46.109375 32.054688 L 30.390625 39.636719 C 32.257812 41.492188 35.144531 42.085938 37.652344 40.878906 L 47.964844 35.902344 C 51.144531 34.371094 52.476562 30.554688 50.945312 27.375 L 49.539062 24.46875 C 48.007812 21.289062 44.191406 19.957031 41.011719 21.488281 Z M 6.792969 48.675781 L 5.386719 45.765625 C 4.882812 44.714844 5.324219 43.449219 6.375 42.945312 L 22.089844 35.359375 C 20.222656 33.503906 17.335938 32.910156 14.832031 34.121094 L 4.515625 39.09375 C 1.339844 40.628906 0.0078125 44.445312 1.539062 47.621094 L 2.945312 50.53125 C 4.476562 53.707031 8.292969 55.042969 11.46875 53.507812 L 21.785156 48.53125 C 24.289062 47.324219 25.621094 44.695312 25.332031 42.078125 L 9.613281 49.660156 C 8.5625 50.167969 7.296875 49.722656 6.792969 48.675781 " fill-opacity="1" fill-rule="nonzero"/><path fill="#ffffff" d="M 37.234375 32.832031 C 37.441406 33.257812 37.46875 33.75 37.3125 34.195312 C 37.15625 34.640625 36.828125 35.007812 36.402344 35.214844 L 18.128906 44.03125 C 17.703125 44.234375 17.210938 44.261719 16.765625 44.105469 C 16.320312 43.949219 15.953125 43.625 15.746094 43.199219 L 15.25 42.164062 C 14.820312 41.277344 15.195312 40.210938 16.082031 39.785156 L 34.355469 30.96875 C 35.242188 30.539062 36.308594 30.914062 36.738281 31.800781 L 37.234375 32.832031 " fill-opacity="1" fill-rule="nonzero"/><path fill="#ffffff" d="M 8.644531 34.824219 C 8.519531 34.886719 8.371094 34.910156 8.222656 34.878906 C 7.851562 34.8125 7.605469 34.453125 7.675781 34.082031 C 8.769531 28.164062 12.640625 23.078125 18.03125 20.476562 C 21.621094 18.746094 25.589844 18.199219 29.507812 18.898438 C 29.882812 18.964844 30.128906 19.320312 30.0625 19.695312 C 29.996094 20.066406 29.640625 20.3125 29.269531 20.246094 C 25.636719 19.597656 21.957031 20.105469 18.625 21.710938 C 13.628906 24.125 10.035156 28.839844 9.023438 34.332031 C 8.980469 34.554688 8.835938 34.734375 8.644531 34.824219 " fill-opacity="1" fill-rule="nonzero"/><g clip-path="url(#02bc24a60b)"><path fill="#ffffff" d="M 27.847656 15.519531 L 28.214844 19.363281 L 25.707031 22.292969 L 34.804688 21.445312 L 27.847656 15.519531 " fill-opacity="1" fill-rule="nonzero"/></g><path fill="#ffffff" d="M 34.453125 54.519531 C 30.863281 56.253906 26.894531 56.800781 22.972656 56.101562 C 22.601562 56.035156 22.355469 55.679688 22.421875 55.304688 C 22.484375 54.933594 22.839844 54.6875 23.214844 54.75 C 26.847656 55.398438 30.527344 54.890625 33.855469 53.285156 C 38.855469 50.875 42.445312 46.15625 43.460938 40.667969 C 43.53125 40.292969 43.890625 40.050781 44.261719 40.117188 C 44.632812 40.1875 44.878906 40.546875 44.808594 40.917969 C 43.714844 46.835938 39.84375 51.921875 34.453125 54.519531 " fill-opacity="1" fill-rule="nonzero"/><g clip-path="url(#ca27e7e2aa)"><path fill="#ffffff" d="M 24.636719 59.476562 L 24.269531 55.636719 L 26.777344 52.707031 L 17.679688 53.554688 L 24.636719 59.476562 " fill-opacity="1" fill-rule="nonzero"/></g><g fill="#ffffff" fill-opacity="1"><g transform="translate(52.488129, 44.969634)"><g><path d="M 1.890625 0 L 1.890625 -15.078125 L 5.09375 -15.078125 L 5.09375 -2.640625 L 11.21875 -2.640625 L 11.21875 0 Z M 1.890625 0 "/></g></g></g><g fill="#ffffff" fill-opacity="1"><g transform="translate(64.425, 44.969634)"><g><path d="M 1.890625 0 L 1.890625 -15.078125 L 5.09375 -15.078125 L 5.09375 0 Z M 1.890625 0 "/></g></g></g><g fill="#ffffff" fill-opacity="1"><g transform="translate(71.419986, 44.969634)"><g><path d="M 15.28125 0 L 11.21875 0 L 4.65625 -11.40625 L 4.5625 -11.40625 C 4.6875 -9.394531 4.75 -7.957031 4.75 -7.09375 L 4.75 0 L 1.890625 0 L 1.890625 -15.078125 L 5.9375 -15.078125 L 12.484375 -3.78125 L 12.546875 -3.78125 C 12.453125 -5.738281 12.40625 -7.125 12.40625 -7.9375 L 12.40625 -15.078125 L 15.28125 -15.078125 Z M 15.28125 0 "/></g></g></g><g fill="#ffffff" fill-opacity="1"><g transform="translate(88.597938, 44.969634)"><g><path d="M 14.03125 0 L 10.390625 0 L 6.453125 -6.359375 L 5.09375 -5.390625 L 5.09375 0 L 1.890625 0 L 1.890625 -15.078125 L 5.09375 -15.078125 L 5.09375 -8.1875 L 6.359375 -9.953125 L 10.4375 -15.078125 L 13.984375 -15.078125 L 8.71875 -8.40625 Z M 14.03125 0 "/></g></g></g><g fill="#ffffff" fill-opacity="1"><g transform="translate(102.629178, 44.969634)"><g><path d="M 1.890625 0 L 1.890625 -15.078125 L 5.09375 -15.078125 L 5.09375 0 Z M 1.890625 0 "/></g></g></g><g fill="#737373" fill-opacity="1"><g transform="translate(52.488129, 57.748721)"><g><path d="M 2.53125 0 L 1.421875 -3.625 L 1.390625 -3.625 C 1.429688 -2.882812 1.453125 -2.390625 1.453125 -2.140625 L 1.453125 0 L 0.578125 0 L 0.578125 -4.625 L 1.921875 -4.625 L 3 -1.09375 L 3.03125 -1.09375 L 4.1875 -4.625 L 5.515625 -4.625 L 5.515625 0 L 4.609375 0 L 4.609375 -2.1875 C 4.609375 -2.289062 4.609375 -2.410156 4.609375 -2.546875 C 4.609375 -2.679688 4.625 -3.035156 4.65625 -3.609375 L 4.625 -3.609375 L 3.4375 0 Z M 2.53125 0 "/></g></g></g><g fill="#737373" fill-opacity="1"><g transform="translate(58.585129, 57.748721)"><g><path d="M 0.578125 0 L 0.578125 -4.625 L 1.5625 -4.625 L 1.5625 0 Z M 0.578125 0 "/></g></g></g><g fill="#737373" fill-opacity="1"><g transform="translate(60.725868, 57.748721)"><g><path d="M 4.671875 0 L 3.4375 0 L 1.421875 -3.5 L 1.390625 -3.5 C 1.429688 -2.875 1.453125 -2.429688 1.453125 -2.171875 L 1.453125 0 L 0.578125 0 L 0.578125 -4.625 L 1.8125 -4.625 L 3.828125 -1.15625 L 3.84375 -1.15625 C 3.8125 -1.757812 3.796875 -2.1875 3.796875 -2.4375 L 3.796875 -4.625 L 4.671875 -4.625 Z M 4.671875 0 "/></g></g></g><g fill="#737373" fill-opacity="1"><g transform="translate(65.982991, 57.748721)"><g><path d="M 4.359375 0 L 3.390625 0 L 3.390625 -2 L 1.5625 -2 L 1.5625 0 L 0.578125 0 L 0.578125 -4.625 L 1.5625 -4.625 L 1.5625 -2.8125 L 3.390625 -2.8125 L 3.390625 -4.625 L 4.359375 -4.625 Z M 4.359375 0 "/></g></g></g><g fill="#737373" fill-opacity="1"><g transform="translate(70.930686, 57.748721)"><g><path d="M 4.671875 0 L 3.4375 0 L 1.421875 -3.5 L 1.390625 -3.5 C 1.429688 -2.875 1.453125 -2.429688 1.453125 -2.171875 L 1.453125 0 L 0.578125 0 L 0.578125 -4.625 L 1.8125 -4.625 L 3.828125 -1.15625 L 3.84375 -1.15625 C 3.8125 -1.757812 3.796875 -2.1875 3.796875 -2.4375 L 3.796875 -4.625 L 4.671875 -4.625 Z M 4.671875 0 "/></g></g></g><g fill="#737373" fill-opacity="1"><g transform="translate(76.187809, 57.748721)"><g><path d="M 4.359375 0 L 3.390625 0 L 3.390625 -2 L 1.5625 -2 L 1.5625 0 L 0.578125 0 L 0.578125 -4.625 L 1.5625 -4.625 L 1.5625 -2.8125 L 3.390625 -2.8125 L 3.390625 -4.625 L 4.359375 -4.625 Z M 4.359375 0 "/></g></g></g><g fill="#737373" fill-opacity="1"><g transform="translate(81.135503, 57.748721)"><g><path d="M 3.40625 0 L 3.078125 -1.09375 L 1.390625 -1.09375 L 1.0625 0 L 0 0 L 1.625 -4.640625 L 2.828125 -4.640625 L 4.46875 0 Z M 2.84375 -1.921875 C 2.53125 -2.921875 2.351562 -3.484375 2.3125 -3.609375 C 2.28125 -3.742188 2.253906 -3.847656 2.234375 -3.921875 C 2.160156 -3.648438 1.960938 -2.984375 1.640625 -1.921875 Z M 2.84375 -1.921875 "/></g></g></g><g fill="#737373" fill-opacity="1"><g transform="translate(85.596954, 57.748721)"><g><path d="M 2.359375 0 L 1.390625 0 L 1.390625 -3.796875 L 0.125 -3.796875 L 0.125 -4.625 L 3.609375 -4.625 L 3.609375 -3.796875 L 2.359375 -3.796875 Z M 2.359375 0 "/></g></g></g><g fill="#737373" fill-opacity="1"><g transform="translate(89.341667, 57.748721)"><g><path d="M 1.5625 -2.4375 L 1.875 -2.4375 C 2.175781 -2.4375 2.398438 -2.492188 2.546875 -2.609375 C 2.703125 -2.734375 2.78125 -2.910156 2.78125 -3.140625 C 2.78125 -3.367188 2.71875 -3.535156 2.59375 -3.640625 C 2.46875 -3.753906 2.269531 -3.8125 2 -3.8125 L 1.5625 -3.8125 Z M 3.765625 -3.171875 C 3.765625 -2.679688 3.609375 -2.300781 3.296875 -2.03125 C 2.992188 -1.769531 2.554688 -1.640625 1.984375 -1.640625 L 1.5625 -1.640625 L 1.5625 0 L 0.578125 0 L 0.578125 -4.625 L 2.0625 -4.625 C 2.613281 -4.625 3.035156 -4.5 3.328125 -4.25 C 3.617188 -4.007812 3.765625 -3.648438 3.765625 -3.171875 Z M 3.765625 -3.171875 "/></g></g></g><g fill="#737373" fill-opacity="1"><g transform="translate(93.402124, 57.748721)"><g><path d="M 4.359375 0 L 3.390625 0 L 3.390625 -2 L 1.5625 -2 L 1.5625 0 L 0.578125 0 L 0.578125 -4.625 L 1.5625 -4.625 L 1.5625 -2.8125 L 3.390625 -2.8125 L 3.390625 -4.625 L 4.359375 -4.625 Z M 4.359375 0 "/></g></g></g><g fill="#737373" fill-opacity="1"><g transform="translate(98.349819, 57.748721)"><g><path d="M 3.40625 0 L 3.078125 -1.09375 L 1.390625 -1.09375 L 1.0625 0 L 0 0 L 1.625 -4.640625 L 2.828125 -4.640625 L 4.46875 0 Z M 2.84375 -1.921875 C 2.53125 -2.921875 2.351562 -3.484375 2.3125 -3.609375 C 2.28125 -3.742188 2.253906 -3.847656 2.234375 -3.921875 C 2.160156 -3.648438 1.960938 -2.984375 1.640625 -1.921875 Z M 2.84375 -1.921875 "/></g></g></g><g fill="#737373" fill-opacity="1"><g transform="translate(102.811269, 57.748721)"><g><path d="M 4.671875 0 L 3.4375 0 L 1.421875 -3.5 L 1.390625 -3.5 C 1.429688 -2.875 1.453125 -2.429688 1.453125 -2.171875 L 1.453125 0 L 0.578125 0 L 0.578125 -4.625 L 1.8125 -4.625 L 3.828125 -1.15625 L 3.84375 -1.15625 C 3.8125 -1.757812 3.796875 -2.1875 3.796875 -2.4375 L 3.796875 -4.625 L 4.671875 -4.625 Z M 4.671875 0 "/></g></g></g></svg>