<svg xmlns="http://www.w3.org/2000/svg" xmlns:xlink="http://www.w3.org/1999/xlink" width="500" zoomAndPan="magnify" viewBox="0 0 375 374.999991" height="500" preserveAspectRatio="xMidYMid meet" version="1.0"><defs><g/><clipPath id="91d46cb91a"><path d="M 110 158.078125 L 123 158.078125 L 123 168 L 110 168 Z M 110 158.078125 " clip-rule="nonzero"/></clipPath><clipPath id="6f4c993c70"><path d="M 100 207.789062 L 112.253906 207.789062 L 112.253906 216.578125 L 100 216.578125 Z M 100 207.789062 " clip-rule="nonzero"/></clipPath></defs><path fill="#000000" d="M 131.25 166.070312 L 117.441406 172.730469 C 114.089844 174.347656 112.304688 177.867188 112.695312 181.371094 L 133.734375 171.21875 C 135.140625 170.542969 136.835938 171.132812 137.511719 172.539062 L 139.390625 176.433594 C 140.070312 177.835938 139.476562 179.53125 138.070312 180.210938 L 117.03125 190.359375 C 119.53125 192.84375 123.394531 193.640625 126.75 192.023438 L 140.554688 185.363281 C 144.808594 183.3125 146.59375 178.199219 144.542969 173.949219 L 142.664062 170.054688 C 140.613281 165.800781 135.503906 164.019531 131.25 166.070312 Z M 85.441406 202.457031 L 83.5625 198.566406 C 82.882812 197.160156 83.476562 195.464844 84.882812 194.785156 L 105.921875 184.636719 C 103.421875 182.152344 99.558594 181.359375 96.203125 182.976562 L 82.398438 189.636719 C 78.144531 191.6875 76.359375 196.796875 78.410156 201.050781 L 80.289062 204.941406 C 82.339844 209.195312 87.453125 210.980469 91.703125 208.929688 L 105.511719 202.269531 C 108.863281 200.648438 110.648438 197.128906 110.257812 193.628906 L 89.21875 203.777344 C 87.8125 204.457031 86.117188 203.863281 85.441406 202.457031 " fill-opacity="1" fill-rule="nonzero"/><path fill="#000000" d="M 126.191406 181.25 C 126.464844 181.824219 126.503906 182.480469 126.292969 183.078125 C 126.085938 183.675781 125.648438 184.164062 125.078125 184.441406 L 100.617188 196.238281 C 100.046875 196.515625 99.390625 196.550781 98.792969 196.34375 C 98.195312 196.136719 97.703125 195.699219 97.429688 195.125 L 96.761719 193.746094 C 96.191406 192.558594 96.6875 191.128906 97.875 190.558594 L 122.335938 178.757812 C 123.523438 178.183594 124.953125 178.683594 125.523438 179.871094 L 126.191406 181.25 " fill-opacity="1" fill-rule="nonzero"/><path fill="#000000" d="M 87.921875 183.917969 C 87.753906 184 87.558594 184.03125 87.359375 183.992188 C 86.859375 183.902344 86.53125 183.425781 86.621094 182.925781 C 88.085938 175.003906 93.269531 168.195312 100.484375 164.714844 C 105.292969 162.394531 110.605469 161.664062 115.851562 162.601562 C 116.351562 162.691406 116.683594 163.167969 116.59375 163.664062 C 116.503906 164.160156 116.023438 164.492188 115.527344 164.40625 C 110.667969 163.539062 105.738281 164.214844 101.28125 166.367188 C 94.589844 169.59375 89.785156 175.910156 88.425781 183.257812 C 88.371094 183.558594 88.175781 183.796875 87.921875 183.917969 " fill-opacity="1" fill-rule="nonzero"/><g clip-path="url(#91d46cb91a)"><path fill="#000000" d="M 113.625 158.078125 L 114.117188 163.21875 L 110.757812 167.144531 L 122.9375 166.007812 L 113.625 158.078125 " fill-opacity="1" fill-rule="nonzero"/></g><path fill="#000000" d="M 122.46875 210.28125 C 117.660156 212.601562 112.347656 213.332031 107.101562 212.398438 C 106.605469 212.308594 106.273438 211.832031 106.359375 211.332031 C 106.449219 210.835938 106.925781 210.503906 107.425781 210.59375 C 112.289062 211.460938 117.214844 210.78125 121.671875 208.632812 C 128.363281 205.402344 133.167969 199.089844 134.527344 191.738281 C 134.621094 191.238281 135.097656 190.914062 135.597656 191.003906 C 136.09375 191.097656 136.421875 191.578125 136.332031 192.074219 C 134.867188 199.996094 129.683594 206.800781 122.46875 210.28125 " fill-opacity="1" fill-rule="nonzero"/><g clip-path="url(#6f4c993c70)"><path fill="#000000" d="M 109.328125 216.917969 L 108.835938 211.777344 L 112.195312 207.851562 L 100.015625 208.988281 L 109.328125 216.917969 " fill-opacity="1" fill-rule="nonzero"/></g><g fill="#000000" fill-opacity="1"><g transform="translate(150.590078, 191.304129)"><g><path d="M 2.578125 0 L 2.578125 -20.453125 L 6.90625 -20.453125 L 6.90625 -3.578125 L 15.203125 -3.578125 L 15.203125 0 Z M 2.578125 0 "/></g></g></g><g fill="#000000" fill-opacity="1"><g transform="translate(166.770352, 191.304129)"><g><path d="M 2.578125 0 L 2.578125 -20.453125 L 6.90625 -20.453125 L 6.90625 0 Z M 2.578125 0 "/></g></g></g><g fill="#000000" fill-opacity="1"><g transform="translate(176.251964, 191.304129)"><g><path d="M 20.71875 0 L 15.203125 0 L 6.3125 -15.46875 L 6.1875 -15.46875 C 6.363281 -12.738281 6.453125 -10.789062 6.453125 -9.625 L 6.453125 0 L 2.578125 0 L 2.578125 -20.453125 L 8.046875 -20.453125 L 16.921875 -5.125 L 17.015625 -5.125 C 16.878906 -7.789062 16.8125 -9.671875 16.8125 -10.765625 L 16.8125 -20.453125 L 20.71875 -20.453125 Z M 20.71875 0 "/></g></g></g><g fill="#000000" fill-opacity="1"><g transform="translate(199.536455, 191.304129)"><g><path d="M 19.015625 0 L 14.09375 0 L 8.734375 -8.609375 L 6.90625 -7.296875 L 6.90625 0 L 2.578125 0 L 2.578125 -20.453125 L 6.90625 -20.453125 L 6.90625 -11.09375 L 8.609375 -13.5 L 14.15625 -20.453125 L 18.96875 -20.453125 L 11.828125 -11.390625 Z M 19.015625 0 "/></g></g></g><g fill="#000000" fill-opacity="1"><g transform="translate(218.555619, 191.304129)"><g><path d="M 2.578125 0 L 2.578125 -20.453125 L 6.90625 -20.453125 L 6.90625 0 Z M 2.578125 0 "/></g></g></g><g fill="#737373" fill-opacity="1"><g transform="translate(152.120781, 208.178653)"><g><path d="M 4.359375 0 L 2.453125 -6.21875 L 2.390625 -6.21875 C 2.460938 -4.957031 2.5 -4.113281 2.5 -3.6875 L 2.5 0 L 1 0 L 1 -7.9375 L 3.28125 -7.9375 L 5.171875 -1.859375 L 5.203125 -1.859375 L 7.1875 -7.9375 L 9.484375 -7.9375 L 9.484375 0 L 7.90625 0 L 7.90625 -3.75 C 7.90625 -3.925781 7.90625 -4.128906 7.90625 -4.359375 C 7.914062 -4.597656 7.941406 -5.21875 7.984375 -6.21875 L 7.9375 -6.21875 L 5.890625 0 Z M 4.359375 0 "/></g></g></g><g fill="#737373" fill-opacity="1"><g transform="translate(162.592195, 208.178653)"><g><path d="M 1 0 L 1 -7.9375 L 2.6875 -7.9375 L 2.6875 0 Z M 1 0 "/></g></g></g><g fill="#737373" fill-opacity="1"><g transform="translate(166.268849, 208.178653)"><g><path d="M 8.03125 0 L 5.890625 0 L 2.453125 -6 L 2.390625 -6 C 2.460938 -4.9375 2.5 -4.179688 2.5 -3.734375 L 2.5 0 L 1 0 L 1 -7.9375 L 3.125 -7.9375 L 6.5625 -1.984375 L 6.609375 -1.984375 C 6.546875 -3.015625 6.515625 -3.742188 6.515625 -4.171875 L 6.515625 -7.9375 L 8.03125 -7.9375 Z M 8.03125 0 "/></g></g></g><g fill="#737373" fill-opacity="1"><g transform="translate(175.297799, 208.178653)"><g><path d="M 7.5 0 L 5.828125 0 L 5.828125 -3.421875 L 2.6875 -3.421875 L 2.6875 0 L 1 0 L 1 -7.9375 L 2.6875 -7.9375 L 2.6875 -4.828125 L 5.828125 -4.828125 L 5.828125 -7.9375 L 7.5 -7.9375 Z M 7.5 0 "/></g></g></g><g fill="#737373" fill-opacity="1"><g transform="translate(183.795316, 208.178653)"><g><path d="M 8.03125 0 L 5.890625 0 L 2.453125 -6 L 2.390625 -6 C 2.460938 -4.9375 2.5 -4.179688 2.5 -3.734375 L 2.5 0 L 1 0 L 1 -7.9375 L 3.125 -7.9375 L 6.5625 -1.984375 L 6.609375 -1.984375 C 6.546875 -3.015625 6.515625 -3.742188 6.515625 -4.171875 L 6.515625 -7.9375 L 8.03125 -7.9375 Z M 8.03125 0 "/></g></g></g><g fill="#737373" fill-opacity="1"><g transform="translate(192.824267, 208.178653)"><g><path d="M 7.5 0 L 5.828125 0 L 5.828125 -3.421875 L 2.6875 -3.421875 L 2.6875 0 L 1 0 L 1 -7.9375 L 2.6875 -7.9375 L 2.6875 -4.828125 L 5.828125 -4.828125 L 5.828125 -7.9375 L 7.5 -7.9375 Z M 7.5 0 "/></g></g></g><g fill="#737373" fill-opacity="1"><g transform="translate(201.321784, 208.178653)"><g><path d="M 5.859375 0 L 5.28125 -1.890625 L 2.390625 -1.890625 L 1.8125 0 L 0 0 L 2.796875 -7.96875 L 4.859375 -7.96875 L 7.671875 0 Z M 4.875 -3.296875 C 4.34375 -5.003906 4.039062 -5.96875 3.96875 -6.1875 C 3.90625 -6.414062 3.859375 -6.597656 3.828125 -6.734375 C 3.710938 -6.265625 3.375 -5.117188 2.8125 -3.296875 Z M 4.875 -3.296875 "/></g></g></g><g fill="#737373" fill-opacity="1"><g transform="translate(208.984191, 208.178653)"><g><path d="M 4.0625 0 L 2.375 0 L 2.375 -6.53125 L 0.21875 -6.53125 L 0.21875 -7.9375 L 6.21875 -7.9375 L 6.21875 -6.53125 L 4.0625 -6.53125 Z M 4.0625 0 "/></g></g></g><g fill="#737373" fill-opacity="1"><g transform="translate(215.415624, 208.178653)"><g><path d="M 2.6875 -4.203125 L 3.234375 -4.203125 C 3.753906 -4.203125 4.140625 -4.300781 4.390625 -4.5 C 4.648438 -4.707031 4.78125 -5.003906 4.78125 -5.390625 C 4.78125 -5.785156 4.671875 -6.078125 4.453125 -6.265625 C 4.242188 -6.453125 3.90625 -6.546875 3.4375 -6.546875 L 2.6875 -6.546875 Z M 6.484375 -5.453125 C 6.484375 -4.597656 6.210938 -3.945312 5.671875 -3.5 C 5.140625 -3.050781 4.382812 -2.828125 3.40625 -2.828125 L 2.6875 -2.828125 L 2.6875 0 L 1 0 L 1 -7.9375 L 3.53125 -7.9375 C 4.488281 -7.9375 5.21875 -7.726562 5.71875 -7.3125 C 6.226562 -6.894531 6.484375 -6.273438 6.484375 -5.453125 Z M 6.484375 -5.453125 "/></g></g></g><g fill="#737373" fill-opacity="1"><g transform="translate(222.389336, 208.178653)"><g><path d="M 7.5 0 L 5.828125 0 L 5.828125 -3.421875 L 2.6875 -3.421875 L 2.6875 0 L 1 0 L 1 -7.9375 L 2.6875 -7.9375 L 2.6875 -4.828125 L 5.828125 -4.828125 L 5.828125 -7.9375 L 7.5 -7.9375 Z M 7.5 0 "/></g></g></g><g fill="#737373" fill-opacity="1"><g transform="translate(230.886853, 208.178653)"><g><path d="M 5.859375 0 L 5.28125 -1.890625 L 2.390625 -1.890625 L 1.8125 0 L 0 0 L 2.796875 -7.96875 L 4.859375 -7.96875 L 7.671875 0 Z M 4.875 -3.296875 C 4.34375 -5.003906 4.039062 -5.96875 3.96875 -6.1875 C 3.90625 -6.414062 3.859375 -6.597656 3.828125 -6.734375 C 3.710938 -6.265625 3.375 -5.117188 2.8125 -3.296875 Z M 4.875 -3.296875 "/></g></g></g><g fill="#737373" fill-opacity="1"><g transform="translate(238.54926, 208.178653)"><g><path d="M 8.03125 0 L 5.890625 0 L 2.453125 -6 L 2.390625 -6 C 2.460938 -4.9375 2.5 -4.179688 2.5 -3.734375 L 2.5 0 L 1 0 L 1 -7.9375 L 3.125 -7.9375 L 6.5625 -1.984375 L 6.609375 -1.984375 C 6.546875 -3.015625 6.515625 -3.742188 6.515625 -4.171875 L 6.515625 -7.9375 L 8.03125 -7.9375 Z M 8.03125 0 "/></g></g></g></svg>